 <svg  version="1.0" xmlns="http://www.w3.org/2000/svg"  width="300.000000pt" height="300.000000pt" viewBox="0 0 300.000000 300.000000"  preserveAspectRatio="xMidYMid meet">  <g transform="translate(0.000000,300.000000) scale(0.100000,-0.100000)" fill="#121212" stroke="none"> <path d="M1434 2349 c-136 -23 -267 -91 -369 -195 -80 -81 -125 -152 -162 -256 -38 -107 -44 -291 -14 -403 35 -125 84 -208 181 -306 136 -137 283 -199 471 -199 105 0 222 24 286 60 21 12 29 18 18 15 -131 -41 -172 -47 -285 -43 -184 7 -313 63 -439 189 -123 122 -181 253 -189 427 -6 133 8 205 64 319 77 161 218 284 388 339 69 23 98 27 201 27 116 0 141 -5 270 -47 11 -3 -7 7 -41 24 -104 52 -251 71 -380 49z"/> <path d="M1484 2145 c-15 -23 -15 -27 0 -50 9 -14 25 -25 36 -25 21 0 60 33 60 51 0 51 -67 68 -96 24z"/> <path d="M1459 2011 c-25 -26 -29 -37 -29 -88 0 -32 4 -64 9 -72 6 -9 -1 -29 -19 -60 -16 -25 -31 -56 -35 -68 l-6 -23 130 0 c111 0 131 2 131 15 0 24 -27 82 -55 119 -22 29 -26 43 -23 93 l3 58 28 -59 c15 -33 25 -67 22 -75 -4 -9 13 -34 44 -65 l50 -51 -14 -115 c-8 -69 -10 -119 -4 -124 14 -15 22 0 30 60 12 87 29 89 37 4 3 -30 9 -50 17 -50 20 0 22 8 15 60 -5 38 -3 51 8 55 14 5 13 21 -4 78 -8 28 10 20 29 -13 10 -16 22 -30 28 -30 20 0 7 39 -27 84 -32 42 -38 46 -67 41 -44 -8 -109 39 -102 72 7 28 -57 158 -84 173 -37 19 -81 12 -112 -19z m81 -18 c0 -5 -5 -15 -10 -23 -9 -13 -11 -13 -19 0 -5 8 -7 18 -5 22 6 10 34 11 34 1z m-58 -77 c-2 -31 -9 -56 -14 -56 -7 0 -8 14 -4 38 3 20 6 47 6 60 0 13 3 21 8 19 4 -3 5 -30 4 -61z m66 -90 c38 -53 42 -85 10 -88 -40 -2 -110 1 -115 5 -8 9 58 127 72 127 1 0 16 -20 33 -44z m222 -110 c0 -32 -11 -66 -21 -66 -5 0 -9 22 -8 49 2 37 6 48 16 44 7 -3 13 -15 13 -27z"/> <path d="M1712 1888 c-17 -17 -15 -53 3 -68 38 -31 96 27 65 65 -15 18 -51 20 -68 3z"/> <path d="M1118 1857 c-28 -23 -28 -23 -34 -189 -7 -158 -6 -167 15 -212 31 -63 119 -148 259 -252 137 -102 194 -153 185 -168 -4 -8 -3 -8 6 0 14 13 41 150 41 208 0 115 -39 170 -182 259 -90 56 -137 73 -155 54 -20 -20 4 -54 96 -132 85 -71 104 -95 79 -95 -17 0 -150 107 -180 145 -21 27 -23 39 -23 160 0 114 -3 135 -20 160 -11 17 -18 34 -17 38 4 13 -18 47 -31 47 -7 -1 -24 -11 -39 -23z m67 -109 c10 -34 12 -75 8 -138 -7 -116 2 -136 95 -216 85 -72 135 -95 159 -71 24 24 8 50 -73 123 -41 37 -73 69 -70 71 6 7 123 -60 171 -97 48 -38 74 -89 81 -160 7 -64 -8 -135 -27 -134 -27 2 -251 174 -326 250 -49 49 -75 84 -82 110 -14 50 -5 312 11 332 10 12 14 11 25 -4 8 -10 20 -40 28 -66z"/> <path d="M2042 1868 c-7 -7 -12 -21 -12 -32 0 -11 -8 -28 -17 -39 -15 -16 -18 -40 -18 -158 l0 -138 -35 -37 c-39 -41 -158 -134 -171 -134 -27 0 0 34 72 90 85 67 109 94 109 121 0 47 -66 25 -205 -66 -77 -51 -90 -64 -112 -113 -23 -50 -25 -63 -20 -151 3 -53 11 -113 17 -135 11 -36 12 -37 26 -18 7 11 49 46 91 78 167 123 200 149 256 203 32 31 71 76 85 101 26 44 27 48 25 200 -3 170 -8 210 -28 210 -7 0 -15 7 -19 15 -7 18 -28 19 -44 3z m44 -65 c20 -27 19 -294 -1 -337 -31 -64 -158 -181 -300 -276 -13 -8 -39 -28 -59 -44 -52 -41 -61 -27 -61 87 0 110 15 142 90 199 63 48 144 92 153 83 4 -4 -6 -18 -23 -31 -61 -51 -102 -91 -118 -115 -16 -24 -16 -27 2 -43 13 -12 27 -16 43 -11 35 11 108 68 161 124 51 55 49 47 47 203 -1 68 3 98 19 133 22 50 28 53 47 28z"/> <path d="M1466 1683 c-3 -4 -6 -39 -6 -80 0 -55 3 -73 14 -73 26 0 38 143 12 153 -8 3 -17 3 -20 0z"/> <path d="M1516 1629 c-11 -109 -8 -141 12 -137 14 3 17 17 20 101 2 78 0 97 -11 97 -10 0 -16 -19 -21 -61z"/> <path d="M1419 922 c-20 -17 -21 -22 -10 -36 7 -9 19 -16 27 -16 7 0 16 -5 20 -11 4 -8 -3 -9 -25 -4 -24 5 -31 3 -31 -8 0 -17 43 -31 70 -22 39 12 30 65 -11 65 -11 0 -19 5 -19 11 0 7 10 9 25 5 18 -5 25 -2 25 9 0 8 -4 15 -9 15 -5 0 -16 2 -24 5 -7 3 -24 -3 -38 -13z"/> <path d="M885 907 c-31 -48 16 -101 74 -82 25 8 30 55 6 55 -8 0 -15 -7 -15 -16 0 -9 -7 -14 -17 -12 -10 2 -18 12 -18 23 0 14 9 21 30 25 42 7 38 24 -7 28 -30 3 -40 -1 -53 -21z"/> <path d="M1006 914 c-9 -8 -16 -24 -16 -35 0 -25 35 -59 60 -59 25 0 60 34 60 59 0 28 -27 51 -60 51 -16 0 -36 -7 -44 -16z m64 -33 c0 -26 -17 -36 -35 -21 -18 15 -8 40 16 40 12 0 19 -7 19 -19z"/> <path d="M1132 918 c-18 -18 -14 -63 6 -81 51 -46 124 13 87 69 -17 27 -72 33 -93 12z m66 -40 c-4 -27 -33 -36 -42 -13 -8 22 1 35 25 35 15 0 20 -6 17 -22z"/> <path d="M1250 875 l0 -55 35 0 c22 0 43 8 55 20 42 42 14 90 -51 90 l-39 0 0 -55z m65 4 c0 -15 -7 -25 -17 -27 -13 -3 -18 3 -18 21 0 13 3 27 7 31 13 12 28 -1 28 -25z"/> <path d="M1510 875 c0 -49 2 -55 21 -55 16 0 19 4 14 20 -5 16 -2 20 14 20 14 0 21 -6 21 -20 0 -12 7 -20 18 -20 14 0 17 9 17 55 0 46 -3 55 -17 55 -11 0 -18 -8 -18 -20 0 -14 -7 -20 -21 -20 -16 0 -19 4 -14 20 5 16 2 20 -14 20 -19 0 -21 -6 -21 -55z"/> <path d="M1635 875 l0 -55 48 0 c35 0 47 4 47 15 0 10 -10 15 -30 15 -16 0 -30 5 -30 10 0 6 11 10 25 10 14 0 25 5 25 10 0 6 -11 10 -25 10 -14 0 -25 5 -25 10 0 6 14 10 30 10 17 0 30 5 30 10 0 6 -21 10 -47 10 l-48 0 0 -55z"/> <path d="M1742 875 c1 -47 3 -55 19 -55 11 0 19 6 19 14 0 8 11 17 24 20 29 7 43 41 26 61 -7 9 -29 15 -50 15 l-38 0 0 -55z"/> <path d="M1850 875 c0 -49 2 -55 21 -55 16 0 20 5 16 20 -4 15 0 20 14 20 12 0 19 -7 19 -20 0 -13 7 -20 19 -20 16 0 18 8 17 55 0 46 -3 55 -18 55 -11 0 -18 -7 -18 -20 0 -14 -7 -20 -21 -20 -16 0 -19 4 -14 20 5 16 2 20 -14 20 -19 0 -21 -6 -21 -55z"/> <path d="M1978 875 l4 -55 44 0 c32 0 44 4 44 15 0 10 -10 15 -30 15 -16 0 -30 5 -30 10 0 6 11 10 25 10 14 0 25 5 25 10 0 6 -11 10 -25 10 -14 0 -25 5 -25 10 0 6 14 10 30 10 17 0 30 5 30 10 0 6 -21 10 -47 10 l-48 0 3 -55z"/> <path d="M2086 878 c1 -40 5 -54 18 -56 9 -2 16 3 16 12 0 20 16 21 24 1 3 -8 15 -15 26 -15 15 0 19 4 13 13 -4 6 -8 30 -8 52 l0 40 -45 3 -45 3 1 -53z"/> <path d="M2200 875 l0 -55 35 0 c39 0 75 28 75 58 0 29 -33 52 -73 52 l-37 0 0 -55z m65 4 c0 -15 -7 -25 -17 -27 -13 -3 -18 3 -18 21 0 13 3 27 7 31 13 12 28 -1 28 -25z"/> <path d="M949 759 c-18 -18 -19 -23 -6 -42 27 -41 77 -29 77 17 0 46 -37 59 -71 25z m58 -15 c3 -8 -2 -23 -11 -32 -15 -15 -17 -15 -32 0 -21 21 -11 48 16 48 11 0 23 -7 27 -16z"/> <path d="M1047 773 c-4 -3 -7 -25 -7 -47 0 -30 3 -37 10 -26 7 12 13 13 28 3 17 -10 19 -8 20 25 1 34 -10 52 -34 52 -6 0 -14 -3 -17 -7z m43 -28 c0 -8 -9 -15 -20 -15 -11 0 -20 7 -20 15 0 8 9 15 20 15 11 0 20 -7 20 -15z"/> <path d="M1127 773 c-11 -10 -8 -83 3 -83 6 0 10 4 10 8 0 5 11 14 25 20 30 14 32 37 6 52 -23 12 -35 13 -44 3z"/> <path d="M1200 736 c0 -25 5 -46 10 -46 6 0 10 8 8 17 -5 27 31 28 41 1 8 -19 10 -13 9 27 0 28 -3 40 -5 28 -3 -17 -11 -23 -30 -23 -18 0 -24 4 -20 15 4 8 2 17 -3 20 -6 4 -10 -13 -10 -39z"/> <path d="M1372 735 c0 -28 3 -38 5 -22 5 34 16 34 33 2 20 -38 30 -30 28 23 -1 40 -2 42 -5 12 l-5 -35 -29 35 -28 35 1 -50z"/> <path d="M1548 769 c-21 -12 -24 -49 -6 -67 17 -17 58 -15 65 3 8 23 -5 31 -20 11 -10 -14 -15 -15 -30 -4 -24 18 -12 48 20 48 13 0 21 4 18 10 -8 13 -25 12 -47 -1z"/> <path d="M1633 773 c-8 -2 -13 -22 -13 -44 0 -38 1 -39 33 -38 23 1 26 3 10 6 -13 2 -23 11 -23 18 0 7 10 16 23 18 l22 4 -22 2 c-28 1 -31 21 -3 21 11 0 20 5 20 10 0 10 -26 12 -47 3z"/> <path d="M1737 773 c-4 -3 -7 -25 -7 -47 0 -23 4 -36 8 -30 4 6 17 14 29 18 11 4 24 13 27 21 10 26 -38 58 -57 38z m43 -28 c0 -8 -9 -15 -20 -15 -11 0 -20 7 -20 15 0 8 9 15 20 15 11 0 20 -7 20 -15z"/> <path d="M1816 768 c-11 -35 -14 -78 -7 -78 5 0 11 6 14 13 3 9 9 9 24 0 19 -10 20 -9 19 23 -1 42 -40 74 -50 42z m44 -23 c0 -8 -9 -15 -20 -15 -11 0 -20 7 -20 15 0 8 9 15 20 15 11 0 20 -7 20 -15z"/> <path d="M1896 761 c-11 -13 -15 -27 -11 -40 7 -24 51 -39 67 -23 8 8 15 8 25 1 23 -19 43 -2 43 36 0 35 -22 57 -38 40 -4 -4 -1 -10 6 -12 18 -7 15 -53 -3 -53 -9 0 -15 9 -15 25 0 14 -8 29 -19 35 -27 14 -35 13 -55 -9z m58 -18 c8 -20 -19 -44 -40 -36 -14 5 -19 35 -7 46 12 13 41 7 47 -10z"/> <path d="M2053 773 c-8 -2 -13 -22 -13 -44 0 -38 1 -39 33 -38 30 2 30 2 5 6 -34 5 -37 30 -5 36 l22 4 -22 2 c-32 2 -29 21 3 21 14 0 23 4 19 10 -7 11 -22 12 -42 3z"/> <path d="M2115 757 c-24 -35 13 -79 53 -61 14 6 11 8 -13 13 -21 4 -30 12 -30 26 0 17 7 20 42 22 41 2 42 1 46 -35 l4 -37 1 38 c2 27 6 37 19 37 9 0 13 3 9 7 -3 4 -31 8 -62 8 -45 2 -58 -2 -69 -18z"/> <path d="M1295 734 c-19 -46 -19 -47 5 -32 16 10 24 10 40 0 11 -7 20 -10 20 -7 0 12 -35 75 -42 75 -4 0 -15 -16 -23 -36z"/> <path d="M1465 734 c-19 -46 -19 -47 5 -32 16 10 24 10 40 0 11 -7 20 -10 20 -7 0 12 -35 75 -42 75 -4 0 -15 -16 -23 -36z"/> </g> </svg> 